<?xml version="1.0" encoding="UTF-8" standalone="no"?>
<!-- Created with Inkscape (http://www.inkscape.org/) -->

<svg
   width="35.616776"
   height="50"
   viewBox="0 0 35.616776 50"
   version="1.1"
   id="svg1"
   xmlns="http://www.w3.org/2000/svg"
   xmlns:svg="http://www.w3.org/2000/svg">
  <defs
     id="defs1" />
  <g
     id="layer1"
     style="display:none"
     transform="matrix(1.1840888,0,0,1.1840888,-30.746779,-22.363553)">
    <path
       d="M 34.339844,61.113281 V 18.886719 H 18.886719 v 42.226562 z"
       style="display:inline;fill:#ffffff;stroke:#000000;stroke-width:0"
       id="path11" />
    <path
       d="M 45.660156,18.886719 V 61.113281 H 61.113281 V 18.886719 Z"
       style="display:inline;fill:#ffffff;stroke:#000000;stroke-width:0"
       id="path12" />
  </g>
  <g
     id="g7"
     style="display:none"
     transform="translate(-23.383226,-15)">
    <rect
       style="fill:#ffffff;fill-opacity:1;stroke:#000000;stroke-width:0;stroke-dasharray:none;stroke-opacity:1"
       id="rect7"
       width="50"
       height="50"
       x="15"
       y="15" />
  </g>
  <g
     id="g6"
     style="display:none"
     transform="translate(-23.383226,-15)">
    <path
       d="M 34.339844,61.113281 V 18.886719 H 18.886719 v 42.226562 z"
       style="display:inline;fill:#ffffff;stroke:#000000;stroke-width:0"
       id="path10" />
    <path
       d="M 45.660156,18.886719 V 61.113281 H 61.113281 V 18.886719 Z"
       style="fill:#ffffff;stroke:#000000;stroke-width:0"
       id="path9" />
    <path
       d="M 40,0 A 40,40 0 0 0 0,40 40,40 0 0 0 40,80 40,40 0 0 0 80,40 40,40 0 0 0 40,0 Z m 0,5.7148437 A 34.284389,34.284389 0 0 1 74.285156,40 34.284389,34.284389 0 0 1 40,74.285156 34.284389,34.284389 0 0 1 5.7148437,40 34.284389,34.284389 0 0 1 40,5.7148437 Z"
       style="display:inline;fill:#ffffff;fill-opacity:1;stroke:#000000;stroke-width:0"
       id="path7-5" />
  </g>
  <g
     id="g14"
     style="display:none"
     transform="translate(-23.383226,-15)">
    <path
       d="M 40,0 A 40,40 0 0 0 0,40 40,40 0 0 0 40,80 40,40 0 0 0 80,40 40,40 0 0 0 40,0 Z m 0,5.7148437 A 34.284389,34.284389 0 0 1 74.285156,40 34.284389,34.284389 0 0 1 40,74.285156 34.284389,34.284389 0 0 1 5.7148437,40 34.284389,34.284389 0 0 1 40,5.7148437 Z"
       style="fill:#ffffff;fill-opacity:1;stroke:#000000;stroke-width:0"
       id="path13" />
    <path
       style="display:inline;fill:#ffffff;fill-opacity:1;stroke:#000000;stroke-width:0;stroke-dasharray:none;stroke-opacity:1"
       id="path14"
       d="m 64.976891,40 -18.732669,10.81531 -18.732667,10.815312 10e-7,-21.630623 -10e-7,-21.630621 18.732668,10.815312 z"
       transform="matrix(0.88704791,0,0,1.1557689,4.5180836,-6.2307566)" />
  </g>
  <g
     id="g15"
     style="display:none"
     transform="translate(-23.383226,-15)">
    <rect
       style="display:none;fill:#ffffff;fill-opacity:1;stroke:#000000;stroke-width:0;stroke-dasharray:none;stroke-opacity:1"
       id="rect14"
       width="50"
       height="50"
       x="15"
       y="15" />
    <path
       style="display:inline;fill:#ffffff;fill-opacity:1;stroke:#000000;stroke-width:0;stroke-dasharray:none;stroke-opacity:1"
       id="path14-7"
       d="m 64.976891,40 -18.732669,10.81531 -18.732667,10.815312 10e-7,-21.630623 -10e-7,-21.630621 18.732668,10.815312 z"
       transform="matrix(0.88704791,0,0,1.1557689,-1.020841,-6.230756)" />
    <path
       d="M 47.773437,18.886719 V 61.113281 H 59 V 18.886719 Z"
       style="display:inline;fill:#ffffff;stroke:#000000;stroke-width:0"
       id="path9-6" />
  </g>
  <g
     id="g16"
     style="display:inline"
     transform="matrix(-1,0,0,1,59,-15)">
    <rect
       style="display:none;fill:#ffffff;fill-opacity:1;stroke:#000000;stroke-width:0;stroke-dasharray:none;stroke-opacity:1"
       id="rect15"
       width="50"
       height="50"
       x="15"
       y="15" />
    <path
       style="display:inline;fill:#ffffff;fill-opacity:1;stroke:#000000;stroke-width:0;stroke-dasharray:none;stroke-opacity:1"
       id="path15"
       d="m 64.976891,40 -18.732669,10.81531 -18.732667,10.815312 10e-7,-21.630623 -10e-7,-21.630621 18.732668,10.815312 z"
       transform="matrix(0.88704791,0,0,1.1557689,-1.020841,-6.230756)" />
    <path
       d="M 47.773437,18.886719 V 61.113281 H 59 V 18.886719 Z"
       style="display:inline;fill:#ffffff;stroke:#000000;stroke-width:0"
       id="path16" />
  </g>
</svg>
